# xmcd
#
# Track frame offsets:
#	150
#	18220
#	36367
#
# Disc length: 728 seconds
#
# Revision: 0
# Processed by: cddbd v1.5.2PL0 Copyright (c) Steve Scherf et al.
# Submitted via: audiograbber 1.83.01
#
DISCID=1a02d603
DTITLE=Lea Laven - Adios Amigo/Unten Maa/Se Tehty On [CDS)
DYEAR=1997
DGENRE=Pop
TTITLE0=Adios Amigo
TTITLE1=Unten Maa
TTITLE2=Se Tehty On
EXTD=TR.
EXTT0=
EXTT1=
EXTT2=
PLAYORDER=
